<?xml version="1.0" encoding="UTF-8" standalone="no"?>
<!-- Created with Inkscape (http://www.inkscape.org/) -->

<svg
   width="1920"
   height="1080"
   viewBox="0 0 508 285.75"
   version="1.1"
   id="svg12"
   inkscape:version="1.2.2 (732a01da63, 2022-12-09)"
   sodipodi:docname="prose-consortium.svg"
   inkscape:export-filename="C:\Users\sclontz\Downloads\prose-consortium.png"
   inkscape:export-xdpi="96"
   inkscape:export-ydpi="96"
   xml:space="preserve"
   xmlns:inkscape="http://www.inkscape.org/namespaces/inkscape"
   xmlns:sodipodi="http://sodipodi.sourceforge.net/DTD/sodipodi-0.dtd"
   xmlns:xlink="http://www.w3.org/1999/xlink"
   xmlns="http://www.w3.org/2000/svg"
   xmlns:svg="http://www.w3.org/2000/svg"><sodipodi:namedview
     id="namedview14"
     pagecolor="#ffffff"
     bordercolor="#666666"
     borderopacity="1.0"
     inkscape:pageshadow="2"
     inkscape:pageopacity="0.0"
     inkscape:pagecheckerboard="0"
     inkscape:document-units="mm"
     showgrid="false"
     units="px"
     height="1e-05px"
     inkscape:zoom="0.45254834"
     inkscape:cx="1079.4427"
     inkscape:cy="480.61164"
     inkscape:window-width="1920"
     inkscape:window-height="1001"
     inkscape:window-x="-9"
     inkscape:window-y="-9"
     inkscape:window-maximized="1"
     inkscape:current-layer="layer2"
     inkscape:showpageshadow="2"
     inkscape:deskcolor="#d1d1d1" /><defs
     id="defs9"><linearGradient
       inkscape:collect="always"
       id="linearGradient3576"><stop
         style="stop-color:#55e2ff;stop-opacity:1;"
         offset="0"
         id="stop3572" /><stop
         style="stop-color:#82e8ff;stop-opacity:1;"
         offset="1"
         id="stop3574" /></linearGradient><inkscape:path-effect
       effect="bspline"
       id="path-effect1367"
       is_visible="true"
       weight="33.333333"
       steps="2"
       helper_size="0"
       apply_no_weight="true"
       apply_with_weight="true"
       only_selected="false" /><inkscape:path-effect
       effect="bspline"
       id="path-effect18"
       is_visible="true"
       weight="33.333333"
       steps="2"
       helper_size="0"
       apply_no_weight="true"
       apply_with_weight="true"
       only_selected="false" /><filter
       inkscape:collect="always"
       style="color-interpolation-filters:sRGB"
       id="filter8849"
       x="-0.02565011"
       width="1.0503471"
       y="-0.024595963"
       height="1.0491923"><feGaussianBlur
         inkscape:collect="always"
         stdDeviation="0.60497001"
         id="feGaussianBlur8851" /></filter><filter
       inkscape:collect="always"
       style="color-interpolation-filters:sRGB"
       id="filter8881"
       x="-0.021908293"
       width="1.0433086"
       y="-0.029048917"
       height="1.0581209"><feGaussianBlur
         inkscape:collect="always"
         stdDeviation="0.68236675"
         id="feGaussianBlur8883" /></filter><filter
       inkscape:collect="always"
       style="color-interpolation-filters:sRGB"
       id="filter8922"
       x="-0.045341264"
       width="1.0924726"
       y="-0.055027299"
       height="1.1100546"><feGaussianBlur
         inkscape:collect="always"
         stdDeviation="0.48772433"
         id="feGaussianBlur8924" /></filter><filter
       height="1.0509698"
       y="-0.02548545"
       width="1.0237128"
       x="-0.011850987"
       id="filter1002"
       style="color-interpolation-filters:sRGB"
       inkscape:collect="always"><feGaussianBlur
         id="feGaussianBlur1004"
         stdDeviation="0.6079628"
         inkscape:collect="always" /></filter><radialGradient
       inkscape:collect="always"
       xlink:href="#linearGradient3576"
       id="radialGradient3578"
       cx="392.32748"
       cy="100.25228"
       fx="392.32748"
       fy="100.25228"
       r="50.849609"
       gradientUnits="userSpaceOnUse"
       gradientTransform="matrix(0,-1.5894309,1.6382114,4.6325869e-7,174.96969,718.86874)" /><inkscape:path-effect
       effect="mirror_symmetry"
       start_point="132.6344,-77.524968"
       end_point="132.6344,1.5136171"
       center_point="132.6344,-38.005675"
       id="path-effect6889"
       is_visible="true"
       lpeversion="1.2"
       lpesatellites=""
       mode="free"
       discard_orig_path="false"
       fuse_paths="false"
       oposite_fuse="false"
       split_items="false"
       split_open="false"
       link_styles="false" /><inkscape:path-effect
       effect="mirror_symmetry"
       start_point="178.76587,-7.1125216"
       end_point="178.76587,68.453761"
       center_point="178.76587,30.67062"
       id="path-effect2775"
       is_visible="true"
       lpeversion="1.2"
       lpesatellites=""
       mode="free"
       discard_orig_path="false"
       fuse_paths="false"
       oposite_fuse="false"
       split_items="false"
       split_open="false"
       link_styles="false" /><linearGradient
       inkscape:collect="always"
       id="linearGradient9645"><stop
         style="stop-color:#f3a10f;stop-opacity:1;"
         offset="0"
         id="stop9641" /><stop
         style="stop-color:#c0370a;stop-opacity:1;"
         offset="1"
         id="stop9643" /></linearGradient><clipPath
       clipPathUnits="userSpaceOnUse"
       id="clipPath15466"><g
         id="g15472"><path
           style="color:#000000;fill:#23f30f;stroke-width:2;stroke-linecap:round;stroke-linejoin:round;-inkscape-stroke:none"
           d="M 48.007726,78.77321 65.98578,31.563022 h 6.065763 L 90.029075,78.77321 h -4.750837 l -20.451,-22.356 h 12.32337 L 69.018238,34.047325 52.758026,78.77321 Z"
           id="path15468" /><path
           style="color:#000000;fill:#23f30f;stroke-linecap:round;stroke-linejoin:round;-inkscape-stroke:none"
           d="m 65.986328,30.5625 a 1.0001,1.0001 0 0 0 -0.935547,0.644531 L 47.072266,78.417969 a 1.0001,1.0001 0 0 0 0.935546,1.355468 h 4.75 a 1.0001,1.0001 0 0 0 0.939454,-0.658203 l 15.320312,-42.140625 6.705078,18.44336 H 64.828125 a 1.0001,1.0001 0 0 0 -0.738281,1.673828 l 20.451172,22.355469 a 1.0001,1.0001 0 0 0 0.736328,0.326171 h 4.751953 a 1.0001,1.0001 0 0 0 0.933594,-1.355468 L 72.986328,31.207031 A 1.0001,1.0001 0 0 0 72.050781,30.5625 Z m 0.689453,2 h 4.685547 L 88.578125,77.773437 H 85.71875 L 67.097656,57.417969 h 10.052735 a 1.0001,1.0001 0 0 0 0.939453,-1.341797 l -8.13086,-22.371094 a 1.0001,1.0001 0 0 0 -1.880859,0 L 52.056641,77.773437 h -2.59961 z"
           id="path15470" /></g></clipPath><linearGradient
       inkscape:collect="always"
       xlink:href="#linearGradient9645"
       id="linearGradient6472"
       gradientUnits="userSpaceOnUse"
       x1="86.277603"
       y1="76.527382"
       x2="60.887741"
       y2="50.300312" /></defs><g
     inkscape:groupmode="layer"
     id="layer4"
     inkscape:label="Title"><g
       id="g5201"
       transform="translate(2.71579)"><text
         xml:space="preserve"
         style="font-style:italic;font-size:25.4px;line-height:1.25;font-family:Arial;-inkscape-font-specification:'Arial Italic';stroke:#f8feff;stroke-width:2;stroke-dasharray:none;stroke-opacity:1"
         x="30.592445"
         y="210.83984"
         id="text4586"><tspan
           sodipodi:role="line"
           id="tspan4582"
           style="font-style:italic;font-variant:normal;font-weight:bold;font-stretch:normal;font-size:30.3389px;font-family:'Gill Sans Ultra Bold';-inkscape-font-specification:'Gill Sans Ultra Bold,  Bold Italic';stroke:#f8feff;stroke-width:2;stroke-dasharray:none;stroke-opacity:1"
           x="30.592445"
           y="210.83984">The PROSE Consortium</tspan><tspan
           sodipodi:role="line"
           style="font-size:19.7556px;stroke:#f8feff;stroke-width:2;stroke-dasharray:none;stroke-opacity:1"
           x="30.592445"
           y="243.0045"
           id="tspan4584"
           rotate="0 0 0 0 0 0 0 0 0 0 0 0 0 0 0 0 0 0 0 0 0 0 0 0 0 0 0 0 0 0 0 0 0 0 0 0 0 0 0 0 0 0 0 0 0">The Open-Source Ecosystem for STEM Education</tspan></text><text
         xml:space="preserve"
         style="font-style:italic;font-size:25.4px;line-height:1.25;font-family:Arial;-inkscape-font-specification:'Arial Italic';stroke-width:0.264583"
         x="30.592445"
         y="210.83984"
         id="text7665"><tspan
           sodipodi:role="line"
           id="tspan7663"
           style="font-style:italic;font-variant:normal;font-weight:bold;font-stretch:normal;font-size:30.3389px;font-family:'Gill Sans Ultra Bold';-inkscape-font-specification:'Gill Sans Ultra Bold,  Bold Italic';stroke-width:0.264583"
           x="30.592445"
           y="210.83984">The PROSE Consortium</tspan><tspan
           sodipodi:role="line"
           style="font-size:19.7556px;stroke-width:0.264583"
           x="30.592445"
           y="243.0045"
           id="tspan7667"
           rotate="0 0 0 0 0 0 0 0 0 0 0 0 0 0 0 0 0 0 0 0 0 0 0 0 0 0 0 0 0 0 0 0 0 0 0 0 0 0 0 0 0 0 0 0 0">The Open-Source Ecosystem for STEM Education</tspan></text></g></g><g
     inkscape:groupmode="layer"
     id="layer6"
     inkscape:label="PreTeXt"
     transform="translate(0,-1.5784737)" /><g
     inkscape:groupmode="layer"
     id="layer7"
     inkscape:label="Runestone"
     transform="translate(0,-5.7125882)" /><g
     inkscape:groupmode="layer"
     id="layer3"
     inkscape:label="WeBWorK"
     transform="translate(28.961017)" /><g
     inkscape:groupmode="layer"
     id="layer2"
     inkscape:label="Doenet"
     transform="translate(-6.0592292,-5.5058887)"><g
       id="g8743"
       transform="translate(13.667758,119.07368)"><g
         id="g8695"
         transform="translate(-114.70091)"><g
           id="g8927"
           transform="translate(-116.7019,24.573193)"><g
             aria-label="&lt;PreTeXt/&gt;"
             id="g8889"
             style="font-style:italic;font-size:15.8291px;line-height:1.25;font-family:Arial;-inkscape-font-specification:'Arial Italic';fill:#4e6172;stroke:#ffffff;stroke-width:2;stroke-dasharray:none;stroke-opacity:1"
             transform="translate(210.02952,-124.53756)"><g
               aria-label="&lt;PreTeXt/&gt;"
               id="text8887"
               style="font-size:16.9333px;font-family:'Segoe Script';-inkscape-font-specification:'Segoe Script';stroke:#ffffff;stroke-width:2;stroke-linecap:round;stroke-linejoin:round;stroke-dasharray:none;stroke-opacity:1"><path
                 d="m 40.026481,124.84907 5.490094,3.0427 q 0.41341,0.23151 0.545702,0.41341 0.14056,0.1819 0.14056,0.46302 0,0.35553 -0.256315,0.62012 -0.256315,0.25631 -0.595311,0.25631 -0.223242,0 -0.669726,-0.24805 l -8.177262,-4.54751 8.177262,-4.54752 q 0.446484,-0.23978 0.661457,-0.23978 0.347265,0 0.60358,0.25632 0.256315,0.25631 0.256315,0.61184 0,0.28112 -0.14056,0.46302 -0.132292,0.18191 -0.545702,0.41342 z"
                 style="font-style:normal;font-weight:bold;font-family:'Courier New';-inkscape-font-specification:'Courier New Bold';stroke:#ffffff;stroke-width:2;stroke-dasharray:none;stroke-opacity:1"
                 id="path8891" /><path
                 d="m 50.981863,126.23813 v 1.74459 h 1.71152 q 0.611848,0 0.868163,0.23978 0.264583,0.23151 0.264583,0.61185 0,0.37207 -0.264583,0.61184 -0.256315,0.23151 -0.868163,0.23151 h -3.671086 q -0.611848,0 -0.876431,-0.23151 -0.256314,-0.23977 -0.256314,-0.62011 0,-0.37207 0.264583,-0.60358 0.264582,-0.23978 0.868162,-0.23978 h 0.264583 v -6.63111 h -0.264583 q -0.611848,0 -0.876431,-0.23151 -0.256314,-0.23977 -0.256314,-0.62011 0,-0.38034 0.256314,-0.61185 0.264583,-0.23978 0.876431,-0.23978 l 3.902596,0.008 q 1.719789,0 2.720242,0.94258 1.008722,0.9343 1.008722,2.28202 0,0.74414 -0.338996,1.4056 -0.256315,0.49609 -0.859894,0.98392 -0.595312,0.47955 -1.223696,0.7276 -0.620116,0.23978 -1.645374,0.23978 z m 0,-1.69499 h 1.570961 q 1.10794,0 1.752861,-0.49609 0.653189,-0.50436 0.653189,-1.20716 0,-0.59531 -0.529166,-1.04179 -0.520897,-0.44649 -1.496546,-0.44649 h -1.951299 z"
                 style="font-style:normal;font-weight:bold;font-family:'Courier New';-inkscape-font-specification:'Courier New Bold';stroke:#ffffff;stroke-width:2;stroke-dasharray:none;stroke-opacity:1"
                 id="path8893" /><path
                 d="m 61.771881,122.17017 v 1.05833 q 1.0666,-0.76895 1.678447,-1.02526 0.620116,-0.25632 1.15755,-0.25632 0.826821,0 1.604033,0.61185 0.529166,0.41341 0.529166,0.84336 0,0.3638 -0.256315,0.62012 -0.248046,0.24804 -0.603579,0.24804 -0.314192,0 -0.661457,-0.31419 -0.347265,-0.31419 -0.620116,-0.31419 -0.355533,0 -1.0666,0.44648 -0.702798,0.44649 -1.761129,1.33945 v 2.55488 h 2.414318 q 0.611848,0 0.868163,0.23978 0.264582,0.23151 0.264582,0.61185 0,0.37207 -0.264582,0.61184 -0.256315,0.23151 -0.868163,0.23151 h -5.118024 q -0.611847,0 -0.87643,-0.23151 -0.256315,-0.23977 -0.256315,-0.62011 0,-0.37207 0.256315,-0.60358 0.264583,-0.23978 0.87643,-0.23978 h 1.008722 v -4.11757 H 59.46505 q -0.611848,0 -0.876431,-0.23151 -0.256314,-0.23978 -0.256314,-0.62012 0,-0.37207 0.256314,-0.60358 0.264583,-0.23977 0.876431,-0.23977 z"
                 style="font-style:normal;font-weight:bold;font-family:'Courier New';-inkscape-font-specification:'Courier New Bold';stroke:#ffffff;stroke-width:2;stroke-dasharray:none;stroke-opacity:1"
                 id="path8895" /><path
                 d="m 76.53891,126.78383 h -6.953567 q 0.264583,0.66146 0.934308,1.0666 0.677994,0.40514 1.827275,0.40514 0.942576,0 2.505269,-0.40514 0.64492,-0.16537 0.892967,-0.16537 0.338996,0 0.570506,0.23978 0.23151,0.23978 0.23151,0.60358 0,0.33073 -0.248046,0.56224 -0.330729,0.30592 -1.612302,0.58704 -1.281573,0.27285 -2.463927,0.27285 -2.03398,0 -3.257676,-1.14928 -1.215427,-1.14928 -1.215427,-2.82773 0,-1.78593 1.314646,-2.90214 1.322914,-1.12448 3.042702,-1.12448 1.033527,0 1.893421,0.36381 0.868162,0.3638 1.289841,0.78548 0.595311,0.61184 0.983917,1.51308 0.264583,0.62838 0.264583,1.4552 z m -1.876884,-1.69498 q -0.388606,-0.72761 -1.01699,-1.08314 -0.628385,-0.3638 -1.496547,-0.3638 -0.859894,0 -1.488278,0.3638 -0.628384,0.35553 -1.025259,1.08314 z"
                 style="font-style:normal;font-weight:bold;font-family:'Courier New';-inkscape-font-specification:'Courier New Bold';stroke:#ffffff;stroke-width:2;stroke-dasharray:none;stroke-opacity:1"
                 id="path8897" /><path
                 d="m 83.269234,121.35161 v 6.63111 h 1.141014 q 0.611847,0 0.868162,0.23978 0.264583,0.23151 0.264583,0.61185 0,0.37207 -0.264583,0.61184 -0.256315,0.23151 -0.868162,0.23151 h -3.968743 q -0.611847,0 -0.87643,-0.23151 -0.256315,-0.23977 -0.256315,-0.62011 0,-0.37207 0.256315,-0.60358 0.264583,-0.23978 0.87643,-0.23978 h 1.132746 v -6.63111 h -1.835544 v 1.60404 q 0,0.61184 -0.239778,0.87643 -0.23151,0.25631 -0.611848,0.25631 -0.372069,0 -0.611847,-0.25631 -0.23151,-0.26459 -0.23151,-0.87643 v -3.30729 l 8.780842,0.008 v 3.29902 q 0,0.61184 -0.239778,0.87643 -0.23151,0.25631 -0.611848,0.25631 -0.37207,0 -0.611848,-0.25631 -0.23151,-0.26459 -0.23151,-0.87643 v -1.60404 z"
                 style="font-style:normal;font-weight:bold;font-family:'Courier New';-inkscape-font-specification:'Courier New Bold';stroke:#ffffff;stroke-width:2;stroke-dasharray:none;stroke-opacity:1"
                 id="path8899" /><path
                 d="m 96.862175,126.78383 h -6.953567 q 0.264583,0.66146 0.934308,1.0666 0.677994,0.40514 1.827275,0.40514 0.942577,0 2.505269,-0.40514 0.64492,-0.16537 0.892967,-0.16537 0.338996,0 0.570506,0.23978 0.23151,0.23978 0.23151,0.60358 0,0.33073 -0.248046,0.56224 -0.330729,0.30592 -1.612302,0.58704 -1.281573,0.27285 -2.463927,0.27285 -2.03398,0 -3.257676,-1.14928 -1.215427,-1.14928 -1.215427,-2.82773 0,-1.78593 1.314646,-2.90214 1.322914,-1.12448 3.042702,-1.12448 1.033527,0 1.893421,0.36381 0.868162,0.3638 1.289841,0.78548 0.595311,0.61184 0.983917,1.51308 0.264583,0.62838 0.264583,1.4552 z m -1.876884,-1.69498 q -0.388606,-0.72761 -1.01699,-1.08314 -0.628385,-0.3638 -1.496547,-0.3638 -0.859894,0 -1.488278,0.3638 -0.628384,0.35553 -1.025259,1.08314 z"
                 style="font-style:normal;font-weight:bold;font-family:'Courier New';-inkscape-font-specification:'Courier New Bold';stroke:#ffffff;stroke-width:2;stroke-dasharray:none;stroke-opacity:1"
                 id="path8901" /><path
                 d="m 103.88189,124.56795 2.82773,3.41477 q 0.50436,0.008 0.75241,0.24805 0.25631,0.23151 0.25631,0.60358 0,0.37207 -0.26458,0.61184 -0.25632,0.23151 -0.86816,0.23151 h -1.90996 q -0.60358,0 -0.86816,-0.23151 -0.25632,-0.23977 -0.25632,-0.62011 0,-0.35554 0.23978,-0.58705 0.23978,-0.23977 0.71933,-0.25631 l -1.70325,-2.10013 -1.71979,2.10013 q 0.47129,0.0165 0.71107,0.25631 0.23978,0.23978 0.23978,0.59532 0,0.37207 -0.26458,0.61184 -0.25632,0.23151 -0.86817,0.23151 h -1.901685 q -0.611848,0 -0.876431,-0.23151 -0.256314,-0.23977 -0.256314,-0.62011 0,-0.3638 0.256314,-0.60358 0.256315,-0.23978 0.752408,-0.23978 l 2.811188,-3.43131 -2.678897,-3.1998 q -0.496093,-0.0165 -0.744139,-0.24804 -0.239778,-0.23978 -0.239778,-0.60358 0,-0.38034 0.256315,-0.61185 0.264582,-0.23978 0.87643,-0.23978 l 1.562689,0.008 q 0.61185,0 0.86817,0.23151 0.26458,0.23151 0.26458,0.61185 0,0.28112 -0.16537,0.51263 -0.10748,0.14056 -0.47955,0.33899 l 1.57923,1.89342 1.54615,-1.89342 q -0.37207,-0.19843 -0.47955,-0.33899 -0.16537,-0.23151 -0.16537,-0.51263 0,-0.37207 0.25632,-0.61185 0.26458,-0.23978 0.87643,-0.23978 l 1.55442,0.008 q 0.61185,0 0.86816,0.23151 0.26459,0.23151 0.26459,0.61185 0,0.3638 -0.25632,0.60358 -0.24804,0.23978 -0.7276,0.24804 z"
                 style="font-style:normal;font-weight:bold;font-family:'Courier New';-inkscape-font-specification:'Courier New Bold';stroke:#ffffff;stroke-width:2;stroke-dasharray:none;stroke-opacity:1"
                 id="path8903" /><path
                 d="m 112.5139,123.86515 v 3.39824 q 0,0.5457 0.22324,0.71933 0.34727,0.27285 1.24023,0.27285 1.29811,0 2.39779,-0.55397 0.42167,-0.21497 0.66145,-0.21497 0.33073,0 0.57051,0.24804 0.24805,0.24805 0.24805,0.60358 0,0.33073 -0.26459,0.57051 -0.40514,0.38861 -1.60403,0.71933 -1.19062,0.32246 -2.00918,0.32246 -1.57923,0 -2.37297,-0.67799 -0.78548,-0.68626 -0.78548,-1.67845 v -3.72896 h -0.61185 q -0.61185,0 -0.87643,-0.23151 -0.25632,-0.23978 -0.25632,-0.62012 0,-0.37207 0.25632,-0.60358 0.26458,-0.23977 0.87643,-0.23977 h 0.61185 v -1.52962 q 0,-0.61185 0.23151,-0.86817 0.23977,-0.26458 0.62011,-0.26458 0.37207,0 0.60358,0.26458 0.23978,0.25632 0.23978,0.86817 v 1.52962 h 3.13365 q 0.61185,0 0.86817,0.23977 0.26458,0.23151 0.26458,0.61185 0,0.37207 -0.26458,0.61185 -0.25632,0.23151 -0.86817,0.23151 z"
                 style="font-style:normal;font-weight:bold;font-family:'Courier New';-inkscape-font-specification:'Courier New Bold';stroke:#ffffff;stroke-width:2;stroke-dasharray:none;stroke-opacity:1"
                 id="path8905" /><path
                 d="m 126.5864,119.17707 -5.43221,11.70779 q -0.20671,0.43822 -0.37207,0.57051 -0.21498,0.17363 -0.5209,0.17363 -0.34727,0 -0.60358,-0.24804 -0.24805,-0.24805 -0.24805,-0.56224 0,-0.22324 0.19844,-0.65319 l 5.44875,-11.69952 q 0.20671,-0.43822 0.3638,-0.57051 0.22324,-0.17363 0.5209,-0.17363 0.34727,0 0.59531,0.24804 0.24805,0.23978 0.24805,0.55397 0,0.22325 -0.19844,0.65319 z"
                 style="font-style:normal;font-weight:bold;font-family:'Courier New';-inkscape-font-specification:'Courier New Bold';stroke:#ffffff;stroke-width:2;stroke-dasharray:none;stroke-opacity:1"
                 id="path8907" /><path
                 d="m 135.04479,124.84907 -5.4901,-3.0427 q -0.41341,-0.23151 -0.55397,-0.41342 -0.13229,-0.1819 -0.13229,-0.46302 0,-0.35553 0.25632,-0.61184 0.25631,-0.25632 0.60357,-0.25632 0.21498,0 0.66146,0.23978 l 8.17726,4.54752 -8.17726,4.54751 q -0.44648,0.24805 -0.66146,0.24805 -0.34726,0 -0.60357,-0.25631 -0.25632,-0.25632 -0.25632,-0.62012 0,-0.28112 0.13229,-0.46302 0.14056,-0.1819 0.55397,-0.41341 z"
                 style="font-style:normal;font-weight:bold;font-family:'Courier New';-inkscape-font-specification:'Courier New Bold';stroke:#ffffff;stroke-width:2;stroke-dasharray:none;stroke-opacity:1"
                 id="path8909" /></g></g><g
             aria-label="&lt;PreTeXt/&gt;"
             id="text1312"
             style="font-style:italic;font-size:15.8291px;line-height:1.25;font-family:Arial;-inkscape-font-specification:'Arial Italic';fill:#4e6172;stroke-width:0.247"
             transform="translate(210.02952,-124.53756)"><text
               xml:space="preserve"
               style="font-size:16.9333px;font-family:'Segoe Script';-inkscape-font-specification:'Segoe Script';fill:#4e6172;fill-opacity:1;stroke:#ffffff;stroke-width:4.99999;stroke-linecap:round;stroke-linejoin:round;stroke-dasharray:none;stroke-opacity:1"
               x="36.719196"
               y="129.6777"
               id="text8323"><tspan
                 sodipodi:role="line"
                 id="tspan8321"
                 style="font-style:normal;font-variant:normal;font-weight:bold;font-stretch:normal;font-family:'Courier New';-inkscape-font-specification:'Courier New Bold';fill:#4e6172;fill-opacity:1;stroke:none;stroke-width:5;stroke-opacity:1"
                 x="36.719196"
                 y="129.6777">&lt;PreTeXt/&gt;</tspan></text></g></g></g><g
         id="g8711"
         transform="translate(-115.3418)"><g
           id="g8646"
           transform="translate(115.3418,10.128581)"
           style="stroke:#ffffff;stroke-width:5;stroke-dasharray:none;stroke-opacity:1"><path
             style="fill:#000000;fill-opacity:0;stroke:#ffffff;stroke-width:5;stroke-linecap:round;stroke-linejoin:round;stroke-dasharray:none;stroke-opacity:1"
             d="M 126.00102,-7.1125216 V 68.453761 c 12.87303,-8.948543 38.87728,-8.249552 50.42624,0 h 2.33861 M 231.53072,-7.1125216 V 68.453761 c -12.87303,-8.948543 -38.87728,-8.249552 -50.42624,0 h -2.33861"
             id="path8634"
             sodipodi:nodetypes="cccc"
             transform="translate(-112.60353,-63.424976)" /><path
             style="fill:#ffffff;fill-opacity:1;stroke:#ffffff;stroke-width:5;stroke-linecap:round;stroke-linejoin:round;stroke-dasharray:none;stroke-opacity:1"
             d="m 132.6344,-70.626682 c -5.5793,-4.326525 -25.49392,-12.412308 -47.955359,-1.240234 v 70.4866521 c 30.028029,-8.316292 37.826779,-0.551215 47.955359,2.893881 m 0,-72.1402991 c 5.5793,-4.326525 25.49392,-12.412308 47.95536,-1.240234 v 70.4866521 c -30.02803,-8.316292 -37.82678,-0.551215 -47.95536,2.893881"
             id="path8636"
             sodipodi:nodetypes="cccc"
             transform="translate(-66.47206,0.41341111)" /><g
             id="g8644"
             transform="translate(-122.21099,-35.139974)"
             style="stroke:#ffffff;stroke-width:5;stroke-dasharray:none;stroke-opacity:1"><path
               id="path8638"
               style="fill:none;stroke:#ffffff;stroke-width:5;stroke-linecap:round;stroke-dasharray:none;stroke-opacity:1"
               d="M 196.29375,-25.656749 179.93282,21.657595" /><path
               id="path8640"
               style="fill:none;stroke:#ffffff;stroke-width:5;stroke-linecap:round;stroke-dasharray:none;stroke-opacity:1"
               d="M 167.66521,-22.157021 153.06032,-2.8776003 167.66521,16.40182" /><path
               id="path8642"
               style="fill:none;stroke:#ffffff;stroke-width:5;stroke-linecap:round;stroke-dasharray:none;stroke-opacity:1"
               d="M 209.06838,-22.157021 223.68563,-2.8776003 209.06838,16.40182" /></g></g><g
           id="g7369"
           transform="translate(115.3418,10.128581)"><path
             style="fill:#000000;fill-opacity:0;stroke:#c7b570;stroke-width:2;stroke-linecap:round;stroke-linejoin:round;stroke-opacity:1"
             d="M 126.00102,-7.1125216 V 68.453761 c 12.87303,-8.948543 38.87728,-8.249552 50.42624,0 h 2.33861 M 231.53072,-7.1125216 V 68.453761 c -12.87303,-8.948543 -38.87728,-8.249552 -50.42624,0 h -2.33861"
             id="path438"
             sodipodi:nodetypes="cccc"
             inkscape:path-effect="#path-effect2775"
             inkscape:original-d="M 126.00102,-7.1125216 V 68.453761 c 12.87303,-8.948543 38.87728,-8.249552 50.42624,0 h 2.33861"
             class="UnoptimicedTransforms"
             transform="translate(-112.60353,-63.424976)" /><path
             style="fill:#ffffff;fill-opacity:1;stroke:#000000;stroke-width:2;stroke-linecap:round;stroke-linejoin:round;stroke-opacity:1"
             d="m 132.6344,-70.626682 c -5.5793,-4.326525 -25.49392,-12.412308 -47.955359,-1.240234 v 70.4866521 c 30.028029,-8.316292 37.826779,-0.551215 47.955359,2.893881 m 0,-72.1402991 c 5.5793,-4.326525 25.49392,-12.412308 47.95536,-1.240234 v 70.4866521 c -30.02803,-8.316292 -37.82678,-0.551215 -47.95536,2.893881"
             id="path2857"
             sodipodi:nodetypes="cccc"
             inkscape:path-effect="#path-effect6889"
             inkscape:original-d="m 132.6344,-70.626682 c -5.5793,-4.326525 -25.49392,-12.412308 -47.955359,-1.240234 v 70.4866521 c 30.028029,-8.316292 37.826779,-0.551215 47.955359,2.893881"
             class="UnoptimicedTransforms"
             transform="translate(-66.47206,0.41341111)" /><g
             id="g7361"
             transform="translate(-122.21099,-35.139974)"><path
               id="polyline68"
               style="fill:none;stroke:#4e6172;stroke-width:3.70996;stroke-linecap:round"
               d="M 196.29375,-25.656749 179.93282,21.657595" /><path
               id="polyline76"
               style="fill:none;stroke:#4e6172;stroke-width:3.70996;stroke-linecap:round"
               d="M 167.66521,-22.157021 153.06032,-2.8776003 167.66521,16.40182" /><path
               id="polyline78"
               style="fill:none;stroke:#4e6172;stroke-width:3.70996;stroke-linecap:round"
               d="M 209.06838,-22.157021 223.68563,-2.8776003 209.06838,16.40182" /></g></g></g></g><g
       id="g6921"
       transform="translate(373.43706,40.74784)"><g
         id="g6891"
         transform="translate(120.92285,19.430339)"><g
           id="g6773"
           transform="translate(-121.33626,-20.050456)"
           style="fill:#ffffff;fill-opacity:1;stroke:#ffffff;stroke-width:2;stroke-dasharray:none;stroke-opacity:1"><path
             style="color:#000000;fill:#ffffff;fill-opacity:1;stroke:#ffffff;stroke-width:2;stroke-linecap:round;stroke-linejoin:round;stroke-dasharray:none;stroke-opacity:1"
             d="M 48.007726,78.77321 65.98578,31.563022 h 6.065763 L 90.029075,78.77321 h -4.750837 l -20.451,-22.356 h 12.32337 L 69.018238,34.047325 52.758026,78.77321 Z"
             id="path6769" /><path
             style="color:#000000;fill:#ffffff;fill-opacity:1;stroke:#ffffff;stroke-width:2;stroke-linecap:round;stroke-linejoin:round;stroke-dasharray:none;stroke-opacity:1"
             d="m 65.986328,30.5625 a 1.0001,1.0001 0 0 0 -0.935547,0.644531 L 47.072266,78.417969 a 1.0001,1.0001 0 0 0 0.935546,1.355468 h 4.75 a 1.0001,1.0001 0 0 0 0.939454,-0.658203 l 15.320312,-42.140625 6.705078,18.44336 H 64.828125 a 1.0001,1.0001 0 0 0 -0.738281,1.673828 l 20.451172,22.355469 a 1.0001,1.0001 0 0 0 0.736328,0.326171 h 4.751953 a 1.0001,1.0001 0 0 0 0.933594,-1.355468 L 72.986328,31.207031 A 1.0001,1.0001 0 0 0 72.050781,30.5625 Z m 0.689453,2 h 4.685547 L 88.578125,77.773437 H 85.71875 L 67.097656,57.417969 h 10.052735 a 1.0001,1.0001 0 0 0 0.939453,-1.341797 l -8.13086,-22.371094 a 1.0001,1.0001 0 0 0 -1.880859,0 L 52.056641,77.773437 h -2.59961 z"
             id="path6771" /></g><path
           style="fill:none;stroke:#ffffff;stroke-width:2;stroke-linecap:round;stroke-linejoin:round;stroke-dasharray:none;stroke-opacity:1"
           d="M -104.53434,59.819444 -50.673264,71.731729 -3.75494,59.819444"
           id="path6524" /><path
           style="fill:none;stroke:#ffffff;stroke-width:2;stroke-linecap:round;stroke-linejoin:round;stroke-dasharray:none;stroke-opacity:1"
           d="m -104.53434,64.842754 53.861076,9.162738 46.918324,-9.162738"
           id="path6526"
           sodipodi:nodetypes="ccc" /><path
           style="fill:none;stroke:#ffffff;stroke-width:2;stroke-linecap:round;stroke-linejoin:round;stroke-dasharray:none;stroke-opacity:1"
           d="m -104.53434,63.106754 53.861076,10.04003 46.918324,-10.04003"
           id="path6528"
           sodipodi:nodetypes="ccc" /><path
           style="fill:none;stroke:#ffffff;stroke-width:2;stroke-linecap:round;stroke-linejoin:round;stroke-dasharray:none;stroke-opacity:1"
           d="M -104.53434,61.517754 -50.673264,72.434239 -3.75494,61.517754"
           id="path6530"
           sodipodi:nodetypes="ccc" /><path
           style="fill:none;stroke:#ffffff;stroke-width:5;stroke-linecap:round;stroke-linejoin:round;stroke-dasharray:none;stroke-opacity:1"
           d="m -106.76332,67.418754 56.345841,9.60135 49.110779,-9.60135"
           id="path6532"
           sodipodi:nodetypes="ccc" /><path
           style="fill:#ffffff;fill-opacity:1;stroke:#ffffff;stroke-width:2;stroke-linecap:round;stroke-linejoin:round;stroke-dasharray:none;stroke-opacity:1"
           d="m -96.458831,59.929066 c 0,0 1.203065,0.230647 3.066644,1.217247 2.740556,0.146163 5.922382,0.975199 5.922382,0.975199 2.201311,-2.897291 0.480274,-13.262413 0.480274,-13.262413 -0.161794,-3.030958 1.639602,-9.672475 5.036511,-16.058754 1.97267,-3.708672 4.774026,-7.016438 7.28333,-10.302326 7.749109,-10.147317 4.081714,-17.782034 10.001316,-22.349629 0,0 2.564149,-2.508382 9.850526,-2.146647 0,0 6.824782,-0.299432 10.700514,1.767625 0,0 1.824493,1.044621 3.716736,3.695703 1.346437,1.886393 2.618937,5.019109 3.781065,7.214712 2.69873,5.098696 4.594175,7.276936 8.083288,10.068897 2.841937,2.274094 3.543091,4.838675 4.252167,6.686006 2.119364,4.750298 2.955178,14.12811 3.685998,15.808984 0.58465,2.923261 1.71423,4.040357 1.71423,4.040357 2.7771,4.311809 6.65146,12.389252 7.3092,13.412394 l 1.5347,-0.511569 c 0,0 -4.88437,-8.993714 -7.58838,-14.036339 -0.8039,-4.823379 -2.72191,-12.360235 -4.256617,-16.525882 l -2.273198,-5.861548 c -1.315467,-1.900119 -3.49129,-3.294818 -7.36461,-7.606627 C -34.372934,9.57712 -37.165307,6.57569 -38.553856,3.871674 l -4.789852,-5.547725 c 0,0 -4.955406,-1.877083 -10.433385,-4.073428 -5.074682,-2.034646 -10.777098,-4.904125 -13.239201,-3.733755 l -5.000445,2.19979 c -2.738851,1.963705 -7.678752,12.0297 -7.678752,12.0297 -1.705323,3.772379 1.791465,7.617687 -10.404173,17.797944 l -3.989212,6.946417 c 0,0 -2.415362,10.975764 -2.260333,20.535904 0,0 1.46163,2.44823 0.621193,7.015824 z"
           id="path6536"
           sodipodi:nodetypes="ccccsscccssscccccccccccscccccccc" /><text
           xml:space="preserve"
           style="font-weight:bold;font-size:14.1111px;font-family:'Courier New';-inkscape-font-specification:'Courier New Bold';fill:#ffffff;fill-opacity:1;stroke:#ffffff;stroke-width:1;stroke-linecap:round;stroke-linejoin:round;stroke-dasharray:none;stroke-opacity:1"
           x="-86.210617"
           y="99.020966"
           id="text6542"
           transform="rotate(9.814794)"><tspan
             sodipodi:role="line"
             id="tspan6540"
             style="font-style:normal;font-variant:normal;font-weight:bold;font-stretch:normal;font-size:14.1111px;font-family:'Bebas Neue';-inkscape-font-specification:'Bebas Neue Bold';fill:#ffffff;fill-opacity:1;stroke:#ffffff;stroke-width:1;stroke-dasharray:none;stroke-opacity:1"
             x="-86.210617"
             y="99.020966">RUNESTONE</tspan></text><text
           xml:space="preserve"
           style="font-weight:bold;font-size:14.1111px;font-family:'Courier New';-inkscape-font-specification:'Courier New Bold';fill:#ffffff;fill-opacity:1;stroke:#ffffff;stroke-width:1;stroke-linecap:round;stroke-linejoin:round;stroke-dasharray:none;stroke-opacity:1"
           x="-64.028618"
           y="80.73629"
           id="text6546"
           transform="rotate(-10.66938)"><tspan
             sodipodi:role="line"
             id="tspan6544"
             style="font-style:normal;font-variant:normal;font-weight:bold;font-stretch:normal;font-size:14.1111px;font-family:'Bebas Neue';-inkscape-font-specification:'Bebas Neue Bold';fill:#ffffff;fill-opacity:1;stroke:#ffffff;stroke-width:1;stroke-dasharray:none;stroke-opacity:1"
             x="-64.028618"
             y="80.73629">ACADEMY</tspan></text></g><g
         id="g4261"
         transform="translate(-0.41341121,-0.6201172)"><g
           id="g16378"><rect
             style="fill:url(#linearGradient6472);fill-opacity:1;stroke:none;stroke-width:2;stroke-linecap:round;stroke-linejoin:round;stroke-dasharray:none;stroke-opacity:1"
             id="rect9587"
             width="48.782551"
             height="53.330078"
             x="45.019035"
             y="28.226133"
             clip-path="url(#clipPath15466)" /><g
             id="g4172"><path
               style="fill:none;stroke:#f3a10f;stroke-width:0.5;stroke-linecap:round;stroke-linejoin:round;stroke-dasharray:none;stroke-opacity:1"
               d="M 16.801922,79.8699 70.662996,91.782185 117.58132,79.8699"
               id="path390" /><path
               style="fill:none;stroke:#c0370a;stroke-width:0.5;stroke-linecap:round;stroke-linejoin:round;stroke-dasharray:none;stroke-opacity:1"
               d="M 16.801922,84.89321 70.662996,94.055948 117.58132,84.89321"
               id="path1888"
               sodipodi:nodetypes="ccc" /><path
               style="fill:none;stroke:#f54a0a;stroke-width:0.5;stroke-linecap:round;stroke-linejoin:round;stroke-dasharray:none;stroke-opacity:1"
               d="M 16.801922,83.15721 70.662996,93.19724 117.58132,83.15721"
               id="path1939"
               sodipodi:nodetypes="ccc" /><path
               style="fill:none;stroke:#f27f0a;stroke-width:0.5;stroke-linecap:round;stroke-linejoin:round;stroke-dasharray:none;stroke-opacity:1"
               d="M 16.801922,81.56821 70.662996,92.484695 117.58132,81.56821"
               id="path1941"
               sodipodi:nodetypes="ccc" /><path
               style="fill:none;stroke:#017ff7;stroke-width:3;stroke-linecap:round;stroke-linejoin:round;stroke-dasharray:none;stroke-opacity:1"
               d="m 14.572936,87.46921 56.345845,9.60135 49.110779,-9.60135"
               id="path1943"
               sodipodi:nodetypes="ccc" /></g><path
             style="fill:#017ff7;fill-opacity:1;stroke:none;stroke-width:2;stroke-linecap:round;stroke-linejoin:round;stroke-dasharray:none;stroke-opacity:1"
             d="m 24.877429,79.979522 c 0,0 1.203065,0.230647 3.066644,1.217247 2.740556,0.146163 5.922382,0.975199 5.922382,0.975199 2.201311,-2.897291 0.480274,-13.262413 0.480274,-13.262413 -0.161794,-3.030958 1.639602,-9.672475 5.036511,-16.058754 1.97267,-3.708672 4.774026,-7.016438 7.28333,-10.302326 7.749109,-10.147317 4.081714,-17.782034 10.001316,-22.349629 0,0 2.564149,-2.508382 9.850526,-2.146647 0,0 6.824782,-0.299432 10.700514,1.767625 0,0 1.824493,1.044621 3.716736,3.695703 1.346437,1.886393 2.618937,5.019109 3.781065,7.214712 2.69873,5.098696 4.594175,7.276936 8.083288,10.068897 2.841937,2.274094 3.543091,4.838675 4.252167,6.686006 2.119364,4.750298 2.955178,14.12811 3.685998,15.808984 0.58465,2.923261 1.71423,4.040357 1.71423,4.040357 2.7771,4.311809 6.65146,12.389252 7.3092,13.412394 l 1.5347,-0.511569 c 0,0 -4.88437,-8.993714 -7.58838,-14.036339 -0.8039,-4.823379 -2.72191,-12.360235 -4.256617,-16.525882 L 97.178115,43.811539 C 95.862648,41.91142 93.686825,40.516721 89.813505,36.204912 86.963326,29.627576 84.170953,26.626146 82.782404,23.92213 l -4.789852,-5.547725 c 0,0 -4.955406,-1.877083 -10.433385,-4.073428 C 62.484485,12.266331 56.782069,9.3968521 54.319966,10.567222 l -5.000445,2.19979 c -2.738851,1.963705 -7.678752,12.0297 -7.678752,12.0297 -1.705323,3.772379 1.791465,7.617687 -10.404173,17.797944 l -3.989212,6.946417 c 0,0 -2.415362,10.975764 -2.260333,20.535904 0,0 1.46163,2.44823 0.621193,7.015824 z"
             id="path15552"
             sodipodi:nodetypes="ccccsscccssscccccccccccscccccccc" /></g><text
           xml:space="preserve"
           style="font-weight:bold;font-size:14.1111px;font-family:'Courier New';-inkscape-font-specification:'Courier New Bold';fill:#017ff7;fill-opacity:1;stroke:none;stroke-width:2;stroke-linecap:round;stroke-linejoin:round;stroke-dasharray:none;stroke-opacity:1"
           x="36.767632"
           y="98.094505"
           id="text16458"
           transform="rotate(9.814794)"><tspan
             sodipodi:role="line"
             id="tspan16456"
             style="font-style:normal;font-variant:normal;font-weight:bold;font-stretch:normal;font-size:14.1111px;font-family:'Bebas Neue';-inkscape-font-specification:'Bebas Neue Bold';fill:#017ff7;fill-opacity:1;stroke-width:2"
             x="36.767632"
             y="98.094505">RUNESTONE</tspan></text><text
           xml:space="preserve"
           style="font-weight:bold;font-size:14.1111px;font-family:'Courier New';-inkscape-font-specification:'Courier New Bold';fill:#017ff7;fill-opacity:1;stroke:none;stroke-width:2;stroke-linecap:round;stroke-linejoin:round;stroke-dasharray:none;stroke-opacity:1"
           x="51.497791"
           y="122.90449"
           id="text475"
           transform="rotate(-10.66938)"><tspan
             sodipodi:role="line"
             id="tspan473"
             style="font-style:normal;font-variant:normal;font-weight:bold;font-stretch:normal;font-size:14.1111px;font-family:'Bebas Neue';-inkscape-font-specification:'Bebas Neue Bold';fill:#017ff7;fill-opacity:1;stroke-width:2"
             x="51.497791"
             y="122.90449">ACADEMY</tspan></text></g></g><g
       id="g3817"
       transform="matrix(1.3381941,0,0,1.3381941,-40.022057,-231.10628)"
       style="stroke:#ffffff;stroke-width:1.49455;stroke-dasharray:none;stroke-opacity:1"><g
         id="g3815"
         transform="translate(-61.042075,-18.507438)"
         style="stroke:#ffffff;stroke-width:1.49455;stroke-dasharray:none;stroke-opacity:1"><g
           transform="translate(-0.11138,1.2987676)"
           id="g3809"
           style="stroke:#ffffff;stroke-width:1.49455;stroke-dasharray:none;stroke-opacity:1"><g
             id="g3807"
             style="stroke:#ffffff;stroke-width:1.49455;stroke-dasharray:none;stroke-opacity:1"><g
               id="g3785"
               style="stroke:#ffffff;stroke-width:1.49455;stroke-dasharray:none;stroke-opacity:1" /><g
               id="g3805"
               style="stroke:#ffffff;stroke-width:1.49455;stroke-dasharray:none;stroke-opacity:1"><rect
                 style="fill:#003366;fill-opacity:1;stroke:#ffffff;stroke-width:1.49455;stroke-dasharray:none;stroke-opacity:1"
                 id="rect3787"
                 width="77.716835"
                 height="61.415817"
                 x="198.25598"
                 y="228.96709"
                 transform="translate(0.11138,-1.2987676)" /><g
                 id="g3803"
                 style="stroke:#ffffff;stroke-width:1.49455;stroke-dasharray:none;stroke-opacity:1"><path
                   sodipodi:nodetypes="cccscscscsc"
                   inkscape:connector-curvature="0"
                   id="path3789"
                   d="m 224.2781,233.62123 c 0.42645,5.38525 0.53172,10.78991 -2.46322,14.62117 -4.41017,5.55354 -16.72809,10.29041 -16.66061,10.12704 0,0 11.43376,4.24683 15.51724,9.31035 4.08349,5.06352 8.16696,17.80399 8.16696,17.80399 0,0 3.17736,-10.35947 12.02941,-13.60571 8.11384,-2.97553 27.77228,0.82982 27.77228,0.82982 0,0 -8.93054,-6.17148 -11.87065,-12.86839 -2.94011,-6.69692 -1.30671,-22.3775 -1.30671,-22.3775 0,0 -8.65699,3.92015 -15.19057,4.41016 -6.53357,0.49002 -15.99413,-8.25093 -15.99413,-8.25093 z"
                   style="fill:#ffffcc;fill-opacity:1;stroke:#ffffff;stroke-width:1.49455;stroke-linecap:butt;stroke-linejoin:miter;stroke-miterlimit:5;stroke-dasharray:none;stroke-opacity:1;marker-start:none;marker-mid:none;marker-end:none" /><path
                   style="fill:none;stroke:#ffffff;stroke-width:1.49455;stroke-linecap:butt;stroke-linejoin:miter;stroke-dasharray:none;stroke-opacity:1"
                   d="m 206.21826,258.27235 29.97049,-1.5363"
                   id="path3791"
                   inkscape:connector-curvature="0"
                   sodipodi:nodetypes="cc" /><path
                   style="fill:none;stroke:#ffffff;stroke-width:1.49455;stroke-linecap:butt;stroke-linejoin:miter;stroke-dasharray:none;stroke-opacity:1"
                   d="m 224.26497,233.37852 11.27042,23.19419"
                   id="path3793"
                   inkscape:connector-curvature="0" /><path
                   style="fill:none;stroke:#ffffff;stroke-width:1.49455;stroke-linecap:butt;stroke-linejoin:miter;stroke-dasharray:none;stroke-opacity:1"
                   d="m 255.29946,237.78868 -8.8253,10.62302 -10.71601,8.11452"
                   id="path3795"
                   inkscape:connector-curvature="0"
                   sodipodi:nodetypes="ccc" /><path
                   style="fill:none;stroke:#ffffff;stroke-width:1.49455;stroke-linecap:butt;stroke-linejoin:miter;stroke-dasharray:none;stroke-opacity:1"
                   d="m 266.86967,271.85578 -8.21249,-3.94348 -22.79511,-11.17625"
                   id="path3797"
                   inkscape:connector-curvature="0"
                   sodipodi:nodetypes="ccc" /><path
                   style="fill:none;stroke:#ffffff;stroke-width:1.49455;stroke-linecap:butt;stroke-linejoin:miter;stroke-dasharray:none;stroke-opacity:1"
                   d="m 228.83848,284.50374 2.77775,-13.8908 4.24584,-14.53025"
                   id="path3799"
                   inkscape:connector-curvature="0"
                   sodipodi:nodetypes="ccc" /><path
                   style="fill:none;stroke:#ffffff;stroke-width:1.49455;stroke-linecap:butt;stroke-linejoin:bevel;stroke-dasharray:none;stroke-opacity:1"
                   d="m 228.02178,240.89213 c 0.21306,1.67416 2.07245,6.77696 -0.72048,10.98053 -3.01023,4.53061 -6.95647,5.68009 -6.95647,5.68009 0,0 2.77677,0.98003 6.53357,4.73684 3.75681,3.7568 4.61999,8.90361 4.61999,8.90361 0,0 3.96475,-4.03192 7.73116,-5.31984 5.51947,-1.88738 14.56431,-0.44999 14.56431,-0.44999 0,0 -1.05352,-0.75601 -5.73429,-7.29732 -3.62703,-5.06874 -1.09688,-10.27745 -1.09688,-10.27745 0,0 -4.53348,0.64703 -10.15092,0.15041 -5.21371,-0.46093 -8.78999,-7.10688 -8.78999,-7.10688 z"
                   id="path3801"
                   inkscape:connector-curvature="0"
                   sodipodi:nodetypes="cscscscscsc" /></g></g></g></g><text
           xml:space="preserve"
           style="font-style:normal;font-variant:normal;font-weight:bold;font-stretch:normal;line-height:0%;font-family:'Droid Sans';-inkscape-font-specification:'Droid Sans Bold';letter-spacing:0px;word-spacing:0px;fill:#000000;fill-opacity:1;stroke:#ffffff;stroke-width:1.49455;stroke-dasharray:none;stroke-opacity:1"
           x="201.1851"
           y="301.41742"
           id="text3813"
           transform="scale(0.99273693,1.0073162)"><tspan
             sodipodi:role="line"
             id="tspan3811"
             x="201.1851"
             y="301.41742"
             style="font-size:16px;line-height:1.25;stroke:#ffffff;stroke-width:1.49455;stroke-dasharray:none;stroke-opacity:1">WeBWorK</tspan></text></g></g><g
       id="g5899"
       transform="matrix(1.3381941,0,0,1.3381941,-40.022057,-231.10628)"><g
         id="g5972"
         transform="translate(-61.042075,-18.507438)"><g
           transform="translate(-0.11138,1.2987676)"
           id="g5816"><g
             id="g5922"><g
               id="g5932" /><g
               id="g5961"><rect
                 style="fill:#003366;fill-opacity:1;stroke:none"
                 id="rect5804"
                 width="77.716835"
                 height="61.415817"
                 x="198.25598"
                 y="228.96709"
                 transform="translate(0.11138,-1.2987676)" /><g
                 id="g5951"><path
                   sodipodi:nodetypes="cccscscscsc"
                   inkscape:connector-curvature="0"
                   id="path4218"
                   d="m 224.2781,233.62123 c 0.42645,5.38525 0.53172,10.78991 -2.46322,14.62117 -4.41017,5.55354 -16.72809,10.29041 -16.66061,10.12704 0,0 11.43376,4.24683 15.51724,9.31035 4.08349,5.06352 8.16696,17.80399 8.16696,17.80399 0,0 3.17736,-10.35947 12.02941,-13.60571 8.11384,-2.97553 27.77228,0.82982 27.77228,0.82982 0,0 -8.93054,-6.17148 -11.87065,-12.86839 -2.94011,-6.69692 -1.30671,-22.3775 -1.30671,-22.3775 0,0 -8.65699,3.92015 -15.19057,4.41016 -6.53357,0.49002 -15.99413,-8.25093 -15.99413,-8.25093 z"
                   style="fill:#ffffcc;fill-opacity:1;stroke:#000000;stroke-width:1;stroke-linecap:butt;stroke-linejoin:miter;stroke-miterlimit:5;stroke-dasharray:none;stroke-opacity:1;marker-start:none;marker-mid:none;marker-end:none" /><path
                   style="fill:none;stroke:#000000;stroke-width:1px;stroke-linecap:butt;stroke-linejoin:miter;stroke-opacity:1"
                   d="m 206.21826,258.27235 29.97049,-1.5363"
                   id="path4220"
                   inkscape:connector-curvature="0"
                   sodipodi:nodetypes="cc" /><path
                   style="fill:none;stroke:#000000;stroke-width:1px;stroke-linecap:butt;stroke-linejoin:miter;stroke-opacity:1"
                   d="m 224.26497,233.37852 11.27042,23.19419"
                   id="path4222"
                   inkscape:connector-curvature="0" /><path
                   style="fill:none;stroke:#000000;stroke-width:1px;stroke-linecap:butt;stroke-linejoin:miter;stroke-opacity:1"
                   d="m 255.29946,237.78868 -8.8253,10.62302 -10.71601,8.11452"
                   id="path4224"
                   inkscape:connector-curvature="0"
                   sodipodi:nodetypes="ccc" /><path
                   style="fill:none;stroke:#000000;stroke-width:1px;stroke-linecap:butt;stroke-linejoin:miter;stroke-opacity:1"
                   d="m 266.86967,271.85578 -8.21249,-3.94348 -22.79511,-11.17625"
                   id="path4226"
                   inkscape:connector-curvature="0"
                   sodipodi:nodetypes="ccc" /><path
                   style="fill:none;stroke:#000000;stroke-width:1px;stroke-linecap:butt;stroke-linejoin:miter;stroke-opacity:1"
                   d="m 228.83848,284.50374 2.77775,-13.8908 4.24584,-14.53025"
                   id="path4228"
                   inkscape:connector-curvature="0"
                   sodipodi:nodetypes="ccc" /><path
                   style="fill:none;stroke:#000000;stroke-width:1px;stroke-linecap:butt;stroke-linejoin:bevel;stroke-opacity:1"
                   d="m 228.02178,240.89213 c 0.21306,1.67416 2.07245,6.77696 -0.72048,10.98053 -3.01023,4.53061 -6.95647,5.68009 -6.95647,5.68009 0,0 2.77677,0.98003 6.53357,4.73684 3.75681,3.7568 4.61999,8.90361 4.61999,8.90361 0,0 3.96475,-4.03192 7.73116,-5.31984 5.51947,-1.88738 14.56431,-0.44999 14.56431,-0.44999 0,0 -1.05352,-0.75601 -5.73429,-7.29732 -3.62703,-5.06874 -1.09688,-10.27745 -1.09688,-10.27745 0,0 -4.53348,0.64703 -10.15092,0.15041 -5.21371,-0.46093 -8.78999,-7.10688 -8.78999,-7.10688 z"
                   id="path4230"
                   inkscape:connector-curvature="0"
                   sodipodi:nodetypes="cscscscscsc" /></g></g></g></g><text
           xml:space="preserve"
           style="font-style:normal;font-variant:normal;font-weight:bold;font-stretch:normal;line-height:0%;font-family:'Droid Sans';-inkscape-font-specification:'Droid Sans Bold';letter-spacing:0px;word-spacing:0px;fill:#000000;fill-opacity:1;stroke:none"
           x="201.1851"
           y="301.41742"
           id="text5893"
           transform="scale(0.99273693,1.0073162)"><tspan
             sodipodi:role="line"
             id="tspan5895"
             x="201.1851"
             y="301.41742"
             style="font-size:16px;line-height:1.25">WeBWorK</tspan></text></g></g><g
       id="g3753"
       transform="translate(-11.39189,9.0950521)"><circle
         style="fill:url(#radialGradient3578);fill-opacity:1;stroke:#ffffff;stroke-width:2;stroke-linecap:round;stroke-linejoin:round;stroke-dasharray:none;stroke-opacity:1"
         id="path2791"
         cx="337.13702"
         cy="91.570641"
         r="50.849609" /><g
         id="g3027"
         transform="translate(0.347385,2.4772639)"><text
           xml:space="preserve"
           style="font-style:normal;font-weight:normal;font-size:12.9223px;line-height:1.25;font-family:sans-serif;fill:#333333;fill-opacity:1;stroke:none;stroke-width:0.121147"
           x="308.6601"
           y="121.5673"
           id="text1313"><tspan
             sodipodi:role="line"
             id="tspan1311"
             x="308.6601"
             y="121.5673"
             style="font-style:normal;font-variant:normal;font-weight:bold;font-stretch:normal;font-size:16.1529px;font-family:'Segoe UI';-inkscape-font-specification:'Segoe UI Bold';fill:#333333;stroke-width:0.121147">Doenet</tspan></text><g
           id="g2687"><path
             sodipodi:nodetypes="cccccccccc"
             inkscape:connector-curvature="0"
             id="path1296"
             d="m 312.72242,79.136519 c -10.09346,-3.535749 -15.8606,4.626027 -15.61278,11.399827 0.41713,6.926044 3.51251,11.611114 8.94105,12.067154 l 56.13166,-0.49564 c 16.09901,-0.44678 17.12581,-23.958612 -1.48693,-21.43662 4.18503,-2.552953 1.3668,-11.195686 -2.97387,-16.108429 -4.32322,-4.616128 -9.63602,-7.70981 -16.85188,-7.68248 -4.76938,0.516103 -12.12691,2.630773 -14.99323,9.541146 -1.96412,-5.769928 -8.80007,-3.470897 -12.51501,-0.867377 -4.17136,3.690129 -3.16641,9.663926 -0.63901,13.582419 z"
             style="display:inline;fill:#ffffff;fill-opacity:1;stroke:#333333;stroke-width:0.915755;stroke-linecap:butt;stroke-linejoin:miter;stroke-miterlimit:4;stroke-dasharray:none;stroke-opacity:1" /><path
             inkscape:connector-curvature="0"
             id="path1308"
             d="m 325.6801,105.77756 c -4.06617,-0.34928 -6.5979,-0.73035 -7.85706,-1.18266 -2.87627,-1.03319 -4.75196,-3.00392 -5.96681,-6.269132 -0.16518,-0.443962 -0.31505,-0.821926 -0.33304,-0.839926 -0.018,-0.01799 -0.33882,0.06448 -0.71294,0.183289 -1.04047,0.330413 -2.05418,0.446449 -3.40647,0.389928 -2.90794,-0.121543 -5.48686,-1.1956 -7.34115,-3.057422 -2.03333,-2.04159 -2.88195,-4.592394 -2.87337,-8.636859 0.007,-3.114822 0.64425,-5.386673 2.1531,-7.671256 2.05676,-3.114193 5.70166,-5.343602 10.3319,-6.319521 0.50161,-0.105724 0.99537,-0.211005 1.09725,-0.233957 0.1798,-0.0405 0.18532,-9.62e-4 0.18813,1.345817 0.003,1.488203 0.12527,2.262021 0.55742,3.530779 0.763,2.240094 2.34409,4.247487 4.5413,5.76575 0.87944,0.607695 1.06671,0.705205 2.32765,1.211965 5.50278,2.211526 16.25815,2.956209 24.89596,1.723745 3.40373,-0.485648 6.59181,-1.313212 8.45974,-2.195981 2.1523,-1.017157 4.32681,-3.077815 5.37454,-5.093136 0.78966,-1.518922 1.13127,-2.936699 1.16436,-4.832395 l 0.0223,-1.276819 0.72046,-0.07391 c 1.09115,-0.111934 3.93247,-0.0035 5.28053,0.201483 0.65209,0.09916 1.81495,0.31294 2.58414,0.475057 1.25168,0.263811 1.48422,0.343823 2.21488,0.762094 3.86365,2.211764 6.06016,5.026709 7.27844,9.327707 0.4271,1.507828 0.55393,2.300098 0.55393,3.460273 0,4.808942 -3.66488,10.253468 -9.51989,14.142697 -1.2655,0.84062 -3.42976,1.98684 -4.75313,2.51732 -1.26993,0.50907 -5.82002,1.53936 -8.57293,1.94119 -1.5557,0.22708 -4.86601,0.22992 -6.06489,0.005 -3.5544,-0.66626 -6.03395,-2.4256 -7.90942,-5.612031 -0.27572,-0.468459 -0.53036,-0.817302 -0.56586,-0.775209 -0.0355,0.04208 -0.28491,0.36382 -0.55423,0.714944 -2.68401,3.499226 -6.06088,5.583886 -10.03158,6.192846 -0.93579,0.14352 -2.62151,0.23498 -3.28325,0.17814 z"
             style="display:inline;fill:none;fill-opacity:0.631579;stroke:none;stroke-width:0.10879;stroke-miterlimit:4;stroke-dasharray:none;stroke-opacity:1" /><path
             style="display:inline;fill:none;stroke:none;stroke-width:0.154504;stroke-miterlimit:4;stroke-dasharray:none;stroke-opacity:1"
             d="m 333.30564,89.921993 c -3.81251,-0.213078 -7.28608,-0.937408 -8.9688,-1.870229 -0.4286,-0.237597 -1.08663,-0.729994 -1.55486,-1.163499 -1.02806,-0.951799 -1.78695,-2.28018 -2.06314,-3.611344 -0.21064,-1.015216 -0.11862,-2.50781 0.20782,-3.370823 l 0.0911,-0.240773 0.005,0.331063 c 0.0131,0.822499 0.35088,1.690246 0.81158,2.085142 0.34856,0.29877 0.88641,0.537975 1.47848,0.657531 0.98103,0.198101 2.55237,0.02505 4.57532,-0.503867 1.55286,-0.406009 2.33222,-0.456518 3.07827,-0.199493 0.43363,0.149397 1.42201,0.648387 2.33897,1.180853 1.59364,0.925407 2.38249,1.251215 3.65163,1.508189 2.51184,0.508588 5.31276,0.162703 7.04373,-0.869839 1.00171,-0.597526 1.45786,-1.091997 2.29649,-2.489371 0.61222,-1.020127 0.63039,-1.045742 0.87576,-1.235124 0.23491,-0.181297 0.5331,-0.174127 1.90303,0.04575 1.18116,0.189588 1.58418,0.21689 1.82878,0.123894 0.17666,-0.06717 0.17958,-0.06128 0.28159,0.569132 0.0864,0.533619 0.0834,1.717215 -0.005,2.207473 -0.4293,2.367452 -2.2232,4.434472 -4.633,5.338372 -3.19568,1.198683 -8.32149,1.781982 -13.24252,1.506958 z"
             id="path1315"
             inkscape:connector-curvature="0" /><path
             style="display:inline;fill:none;stroke:none;stroke-width:0.141493;stroke-miterlimit:4;stroke-dasharray:none;stroke-opacity:1"
             d="m 337.6713,84.29818 c -1.58994,-0.256654 -2.29406,-0.535502 -4.35426,-1.724367 -1.01992,-0.588565 -2.05314,-1.067359 -2.50943,-1.162876 -0.85157,-0.17827 -1.58079,-0.100866 -3.37385,0.358115 -1.40709,0.36018 -2.18812,0.480126 -3.12702,0.480213 -0.92174,5.9e-5 -1.35733,-0.103586 -1.8948,-0.450969 -0.28997,-0.187418 -0.38168,-0.291278 -0.53855,-0.609938 -0.37378,-0.759237 -0.37275,-1.593876 0.003,-2.726899 0.24323,-0.732765 0.38943,-0.962706 0.93813,-1.475552 0.96566,-0.902561 1.78636,-1.363807 3.31407,-1.86257 2.79089,-0.911161 6.23463,-1.32109 10.48733,-1.248372 5.42479,0.09276 9.57919,0.921046 11.68316,2.329342 0.21208,0.141951 0.64292,0.520439 0.95742,0.841086 0.62407,0.636245 1.08229,1.314854 1.42843,2.115474 0.20358,0.470866 0.20839,0.497596 0.10336,0.574394 -0.15398,0.112595 -0.29895,0.103764 -1.54526,-0.09414 -1.69031,-0.268404 -1.64017,-0.264446 -2.00532,-0.158292 -0.44474,0.129288 -0.76569,0.451651 -1.20051,1.205781 -0.90808,1.574934 -1.35907,2.098586 -2.28146,2.649023 -0.67002,0.399842 -1.46763,0.696089 -2.36164,0.877175 -0.85165,0.172505 -2.88845,0.21811 -3.72315,0.08337 z m 0.0886,-5.799737 c 0.8328,-0.145862 1.6116,-0.366286 2.1389,-0.605376 0.35055,-0.158947 0.3892,-0.194052 0.3892,-0.353458 0,-0.24517 -0.14268,-0.35443 -0.35093,-0.268721 -0.0884,0.03638 -0.30292,0.122648 -0.47673,0.191711 l -0.316,0.125566 v -0.156184 c 0,-0.221773 -0.30798,-0.485374 -0.7139,-0.611035 -0.29262,-0.09059 -0.60122,-0.105092 -2.23556,-0.105092 -2.39275,0 -2.86566,0.07148 -3.33109,0.503466 l -0.17095,0.15866 -0.17332,-0.206192 c -0.0953,-0.113406 -0.21526,-0.294568 -0.26652,-0.402584 -0.10661,-0.224667 -0.27226,-0.300154 -0.44996,-0.20505 -0.16907,0.09048 -0.15282,0.277727 0.0556,0.641157 0.41536,0.724187 1.36718,1.222086 2.6809,1.402379 0.66034,0.09062 2.41999,0.03093 3.22034,-0.109247 z"
             id="path1317"
             inkscape:connector-curvature="0" /><path
             inkscape:connector-curvature="0"
             id="path1319"
             d="m 333.20103,89.967446 c -3.8125,-0.213077 -7.28607,-0.937408 -8.96879,-1.870228 -0.42861,-0.237597 -1.08663,-0.729999 -1.55487,-1.163499 -1.02805,-0.951799 -1.78695,-2.28018 -2.06314,-3.611345 -0.21063,-1.015215 -0.11861,-2.507809 0.20782,-3.370824 l 0.0911,-0.240773 0.005,0.331063 c 0.0131,0.822501 0.35088,1.690247 0.81158,2.085144 0.34856,0.29877 0.88641,0.537974 1.47848,0.65753 0.98103,0.198097 2.55237,0.02505 4.57532,-0.503866 1.55286,-0.40601 2.33222,-0.456518 3.07827,-0.199493 0.43363,0.149392 1.42201,0.648387 2.33897,1.180853 1.59364,0.925407 2.38249,1.251214 3.65164,1.508184 2.51183,0.508592 5.31273,0.162707 7.0437,-0.869834 1.00171,-0.597531 1.45786,-1.091997 2.2965,-2.489376 0.61222,-1.020122 0.63038,-1.045739 0.87576,-1.235121 0.2349,-0.181296 0.53309,-0.174127 1.90302,0.04576 1.18116,0.189587 1.58418,0.21689 1.82878,0.123894 0.17667,-0.06717 0.17958,-0.06128 0.28159,0.569133 0.0863,0.533619 0.0834,1.717215 -0.005,2.207473 -0.4293,2.367447 -2.2232,4.434467 -4.633,5.338372 -3.19568,1.198683 -8.32147,1.781982 -13.2425,1.506958 z"
             style="display:inline;fill:none;stroke:none;stroke-width:0.154504;stroke-miterlimit:4;stroke-dasharray:none;stroke-opacity:1" /><path
             inkscape:connector-curvature="0"
             id="path1321"
             d="m 337.56669,84.343633 c -1.58993,-0.256658 -2.29405,-0.535501 -4.35425,-1.724367 -1.01993,-0.588565 -2.05314,-1.067358 -2.50943,-1.162876 -0.85158,-0.17827 -1.58079,-0.10087 -3.37385,0.358115 -1.40709,0.360181 -2.18812,0.480122 -3.12702,0.480213 -0.92174,6e-5 -1.35734,-0.103585 -1.89481,-0.450968 -0.28997,-0.187418 -0.38167,-0.291283 -0.53855,-0.609939 -0.37377,-0.759238 -0.37274,-1.593877 0.003,-2.726899 0.24324,-0.732765 0.38943,-0.962707 0.93813,-1.475552 0.96567,-0.902561 1.78637,-1.363808 3.31408,-1.862571 2.79089,-0.911161 6.23461,-1.32109 10.48732,-1.248371 5.42478,0.09276 9.57917,0.921045 11.68315,2.329341 0.21207,0.141951 0.64291,0.52044 0.95742,0.841086 0.62407,0.636246 1.08228,1.314854 1.42843,2.115475 0.20357,0.470865 0.20839,0.497595 0.10336,0.574394 -0.15399,0.112594 -0.29895,0.103763 -1.54526,-0.09414 -1.69032,-0.268404 -1.64017,-0.264446 -2.00533,-0.158292 -0.44473,0.129289 -0.76569,0.451652 -1.2005,1.205778 -0.90808,1.574938 -1.35907,2.09859 -2.28146,2.649028 -0.67002,0.399837 -1.46763,0.696088 -2.36164,0.877174 -0.85164,0.172501 -2.88843,0.21811 -3.72314,0.08337 z m 0.0886,-5.799737 c 0.8328,-0.145862 1.6116,-0.366286 2.1389,-0.605377 0.35055,-0.158947 0.38921,-0.194051 0.38921,-0.353458 0,-0.245169 -0.14269,-0.35443 -0.35094,-0.26872 -0.0884,0.03638 -0.30291,0.122648 -0.47672,0.19171 l -0.31601,0.125567 v -0.156184 c 0,-0.221774 -0.30797,-0.485375 -0.7139,-0.611035 -0.29262,-0.09059 -0.60121,-0.105092 -2.23556,-0.105092 -2.39275,0 -2.86566,0.07148 -3.33109,0.503466 l -0.17094,0.158659 -0.17333,-0.206191 c -0.0953,-0.113406 -0.21525,-0.294569 -0.26651,-0.402585 -0.10661,-0.224667 -0.27226,-0.300153 -0.44997,-0.20505 -0.16906,0.09048 -0.15282,0.277727 0.0556,0.641157 0.41536,0.724188 1.36718,1.222086 2.68089,1.40238 0.66034,0.09062 2.42,0.03093 3.22034,-0.109247 z"
             style="display:inline;fill:none;stroke:none;stroke-width:0.141493;stroke-miterlimit:4;stroke-dasharray:none;stroke-opacity:1" /><path
             inkscape:connector-curvature="0"
             id="path1323"
             d="m 335.22836,95.788179 c -3.71945,-0.125642 -7.33024,-1.314008 -9.99428,-3.289278 -1.98749,-1.473634 -3.71496,-3.714706 -4.27675,-5.548309 -0.7677,-2.505662 -0.82695,-4.996493 -0.16369,-6.880771 0.13748,-0.390567 0.30358,-0.80356 0.36911,-0.917763 0.11752,-0.204795 0.11847,-0.203657 0.0698,0.08306 -0.11474,0.675519 -0.13989,2.616836 -0.0418,3.228894 0.32172,2.008316 1.26507,3.724313 2.80524,5.102854 3.37413,3.020041 6.84111,4.237213 12.063,4.235024 4.36224,-0.0018 8.20406,-1.293934 11.12964,-3.743181 1.1387,-0.953311 2.24426,-2.30481 2.71444,-3.318285 0.51338,-1.106608 0.703,-2.030385 0.71863,-3.501051 0.008,-0.71405 -0.0152,-1.503837 -0.0506,-1.755085 l -0.0644,-0.456813 0.21359,0.498342 c 0.83749,1.95407 0.93995,4.911236 0.23788,6.865755 -0.55344,1.540744 -1.75626,3.591647 -2.62266,4.471811 -1.91114,1.941538 -3.73196,3.052057 -6.54552,3.992125 -2.17928,0.728144 -4.18333,1.013008 -6.5615,0.932674 z"
             style="display:inline;fill:#eda175;fill-opacity:1;stroke:none;stroke-width:0.0830572" /><path
             inkscape:connector-curvature="0"
             id="path1325"
             d="m 339.9093,83.314549 c 0.0113,-0.430881 -0.21907,-0.678987 -0.89057,-0.959148 -0.84254,-0.351522 -1.51254,-0.472521 -2.87675,-0.51954 -2.43175,-0.08381 -4.23226,0.451183 -4.47239,1.328898 l -0.0724,0.264736 -0.42351,-0.432209 c -0.71423,-0.728905 -0.85186,-1.646327 -0.42287,-2.818734 0.5459,-1.491896 3.02525,-2.628874 5.44173,-2.495461 1.81348,0.100123 3.11752,0.638479 4.12652,1.703591 1.28863,1.3603 1.21644,2.784167 -0.20629,4.068165 l -0.21215,0.191466 z"
             style="display:inline;fill:#eda175;fill-opacity:1;stroke:none;stroke-width:0.0830572" /><g
             id="g1335"
             style="stroke:#4d4d4d;stroke-width:0.675731;stroke-miterlimit:4;stroke-dasharray:none;stroke-opacity:1"
             transform="matrix(0.24543133,0,0,0.24543133,254.31198,58.146174)"><path
               sodipodi:nodetypes="cccccccccccccc"
               inkscape:connector-curvature="0"
               id="path1327"
               d="m 269.26082,92.757915 c 2.17396,-8.479657 7.11028,-17.656418 16.14815,-25.72436 9.62679,-7.443005 20.69358,-13.017669 32.48404,-14.45822 10.69007,-1.748696 20.78647,-1.45825 31.70135,0.390081 11.78732,3.158844 20.42724,6.952597 29.29197,14.270503 7.84721,6.873421 13.63947,14.926258 16.12447,24.785516 2.02206,7.985935 1.46382,17.553475 -0.81609,23.644305 -2.93508,7.15336 -5.73404,12.49239 -10.61957,18.06415 -5.29585,4.94204 -10.25447,9.43445 -16.44958,12.12835 -7.66301,3.758 -17.4945,7.04785 -27.53845,7.90982 -12.59288,0.65786 -25.15303,-0.3358 -37.46797,-5.84182 -9.4847,-3.80986 -16.83366,-9.19342 -23.39577,-16.82512 -4.54011,-5.57176 -7.81718,-11.59314 -8.76026,-18.06415 -1.96253,-6.84842 -1.93432,-13.608108 -0.70229,-20.279055 z"
               style="fill:none;stroke:#4d4d4d;stroke-width:0.675731;stroke-linecap:butt;stroke-linejoin:miter;stroke-miterlimit:4;stroke-dasharray:none;stroke-opacity:1" /><path
               sodipodi:nodetypes="cssscccccccc"
               inkscape:connector-curvature="0"
               id="path1329"
               d="m 277.14859,76.071451 c -0.93934,1.510954 -2.98628,6.700779 -3.62816,9.047108 -2.4838,9.079279 -0.74672,23.292091 8.85261,32.602521 7.54137,7.31441 15.75617,12.37985 24.30952,15.19345 6.30246,2.17585 12.60493,3.22627 18.90739,3.48887 6.41502,0.60024 12.83003,0.41266 19.24505,-0.56272 7.20282,-1.16295 13.28019,-2.66354 19.92029,-5.85229 4.50176,-2.17585 8.21571,-4.35171 12.15475,-7.54046 4.53928,-3.52638 7.72804,-7.39039 10.91679,-11.92967 1.98827,-3.56389 3.30128,-7.46542 3.93903,-11.366946 0.22509,-3.188748 0.45019,-6.039865 0.33765,-8.890981 -0.18758,-2.475969 -1.27551,-8.32826 -2.81361,-10.804229"
               style="fill:none;stroke:#4d4d4d;stroke-width:0.675731;stroke-linecap:round;stroke-linejoin:miter;stroke-miterlimit:4;stroke-dasharray:none;stroke-opacity:1" /><path
               sodipodi:nodetypes="cccccccccccc"
               inkscape:connector-curvature="0"
               id="path1331"
               d="m 312.11086,87.163073 c 2.63874,-3.142924 6.02037,-5.377874 10.39251,-6.704851 3.04638,-0.833036 6.17531,-1.418443 9.38678,-1.508591 4.1588,0.148558 7.82234,0.627287 11.73351,2.179077 3.86927,1.547937 6.50041,3.756217 8.88391,6.872472 1.98864,3.104797 3.15185,6.704852 1.5086,10.057278 -1.44633,3.589912 -4.29589,6.436942 -8.54868,8.045822 -3.58099,1.44257 -7.4096,2.05973 -11.73348,2.3467 -4.16133,0.24003 -8.5703,-0.0152 -12.64909,-1.3435 -3.31814,-1.13016 -6.22358,-3.25083 -8.7163,-5.86675 -1.69274,-1.569539 -2.22987,-3.386704 -2.43684,-5.864213 -0.0991,-2.655272 0.62729,-5.475629 2.17908,-8.213444 z"
               style="fill:none;stroke:#4d4d4d;stroke-width:0.675731;stroke-linecap:butt;stroke-linejoin:miter;stroke-miterlimit:4;stroke-dasharray:none;stroke-opacity:1" /><path
               sodipodi:nodetypes="cccacaccc"
               inkscape:connector-curvature="0"
               id="path1333"
               d="m 318.28602,105.90273 c -0.72913,-0.5778 -1.56391,-1.05551 -2.06358,-1.82626 -1.32314,-2.09484 -0.21891,-3.25682 1.83658,-4.539867 1.11326,-0.621339 2.29759,-1.144166 3.52871,-1.475457 3.08134,-0.829178 6.32831,-1.155603 9.49246,-1.238146 3.79698,0.02751 6.893,0.2766 10.23696,1.039409 1.52932,0.348861 3.40697,1.072119 4.42474,1.601967 2.51806,1.113024 3.46913,2.780244 1.73009,4.890674 -0.81981,0.9131 -1.7129,1.32757 -3.01983,1.9604"
               style="fill:none;stroke:#4d4d4d;stroke-width:0.675731;stroke-linecap:round;stroke-linejoin:miter;stroke-miterlimit:4;stroke-dasharray:none;stroke-opacity:1" /></g><path
             inkscape:connector-curvature="0"
             id="path1337"
             d="m 334.31473,91.523489 c -3.56239,-0.256421 -6.32618,-1.211462 -8.76136,-3.027519 -2.27001,-1.692893 -3.31995,-3.07691 -3.92165,-5.169484 -0.27381,-0.95223 -0.35731,-2.896889 -0.16361,-3.810361 0.16062,-0.757418 0.7328,-2.22244 1.0623,-2.719894 0.45323,-0.684251 1.81794,-2.039152 2.64245,-2.623464 3.29294,-2.333619 6.28813,-3.243531 10.67595,-3.243252 2.5477,1.67e-4 4.07864,0.225247 6.02232,0.885426 2.58192,0.876961 4.56862,2.098988 6.27603,3.860423 1.12501,1.160606 1.55296,1.781853 1.85531,2.69334 0.35383,1.066703 0.45539,1.879263 0.39092,3.128011 -0.11552,2.237699 -0.75104,3.672728 -2.41356,5.449966 -1.01081,1.080569 -2.32172,2.023348 -3.93992,2.833544 -2.73131,1.367483 -6.23083,1.994785 -9.72518,1.743264 z m 3.40534,-6.803874 c 1.35023,-0.288376 2.41104,-0.806876 2.97989,-1.456504 0.33143,-0.378486 0.72416,-1.175161 0.79969,-1.622233 0.0723,-0.428115 -0.14756,-1.256298 -0.48116,-1.812224 -0.31597,-0.526545 -1.04731,-1.228618 -1.60911,-1.544718 -1.04215,-0.586373 -2.71749,-0.936811 -4.05644,-0.848504 -1.61749,0.106679 -3.10644,0.668865 -4.0258,1.520038 -0.57929,0.536315 -0.7802,0.87793 -0.95674,1.626706 -0.2646,1.122297 -0.096,1.840258 0.60462,2.574794 0.8201,0.859794 1.71286,1.350368 2.92443,1.606995 0.64322,0.136242 3.10908,0.10762 3.82062,-0.04437 z"
             style="fill:#6d4445;fill-opacity:1;stroke:none;stroke-width:0.0830572" /><path
             transform="matrix(0.30734336,0,0,0.30734336,298.5952,56.044052)"
             inkscape:connector-curvature="0"
             id="path1339"
             d="m 117.18962,115.00508 c -9.11504,-0.47807 -17.390157,-2.62705 -23.968011,-6.22429 -4.782053,-2.61516 -10.44856,-7.11205 -13.36343,-10.605088 -3.252345,-3.897445 -5.273791,-8.682977 -5.803818,-13.739831 -0.20956,-1.999356 -0.208803,-6.318052 0.0013,-7.677791 0.214437,-1.38749 0.92279,-3.714817 1.767872,-5.808415 1.440109,-3.567718 2.142734,-4.607782 5.220885,-7.728257 3.19473,-3.238655 5.915934,-5.347249 10.070243,-7.803204 1.623921,-0.96003 3.907299,-2.14079 3.986589,-2.061503 0.0271,0.02708 -0.527467,0.556592 -1.232314,1.176692 -1.400081,1.231732 -3.347772,3.322839 -4.655743,4.998568 -7.309223,9.364272 -8.413377,20.722231 -3.001042,30.870481 4.705963,8.823817 13.856399,15.900078 25.703119,19.876768 6.16236,2.06857 11.80838,3.10143 19.76197,3.61518 l 1.46879,0.0949 -1.34142,0.23091 c -4.41714,0.76033 -9.6873,1.04336 -14.61503,0.78491 z"
             style="display:inline;fill:#140909;fill-opacity:0.117647;stroke:#ffb3b3;stroke-width:0.133527;stroke-opacity:0.52549;filter:url(#filter8849)" /><path
             transform="matrix(0.30734336,0,0,0.30734336,298.5952,56.044052)"
             inkscape:connector-curvature="0"
             id="path1341"
             d="m 137.03497,88.391889 c 1.53923,-1.680078 2.83767,-4.49218 2.8439,-6.159211 0.0176,-4.703215 -4.03138,-9.60536 -9.58024,-11.598934 -2.56103,-0.92012 -5.36264,-1.422295 -8.57403,-1.536858 l -2.33672,-0.08336 1.66908,-0.563512 c 3.84745,-1.298964 6.11121,-1.692014 9.74746,-1.692418 3.03955,-3.44e-4 4.33358,0.1948 6.63473,1.000511 4.11353,1.440286 7.06758,4.343564 8.00684,7.86922 0.30501,1.144879 0.30555,3.248232 0.001,4.402159 -0.66234,2.510721 -2.47632,4.996923 -5.05602,6.929681 -0.90111,0.675177 -3.68311,2.283666 -3.94969,2.283666 -0.1023,0 0.16483,-0.382923 0.59362,-0.850945 z"
             style="display:inline;fill:#140909;fill-opacity:0.116935;stroke:#ffb3b3;stroke-width:0.133527;stroke-opacity:0.52549;filter:url(#filter8922)" /><path
             transform="matrix(0.30734336,0,0,0.30734336,298.5952,56.044052)"
             sodipodi:nodetypes="sssscsssccssccsss"
             inkscape:connector-curvature="0"
             id="path1343"
             d="M 119.5214,129.34158 C 108.1668,128.90918 97.498875,125.65015 88.899203,119.98656 82.623141,115.85327 76.739073,109.17467 74.033148,103.11311 71.54553,97.540573 69.9574,88.523885 70.965793,82.388301 c 0.364667,-2.218826 3.245006,-10.108907 4.92012,-11.591703 0.259596,-0.479242 -2.057116,4.245696 -2.307171,7.571965 -0.467543,6.219303 0.320238,10.945093 2.602079,15.60953 2.200515,4.498194 5.287531,7.966227 10.784691,12.115797 7.556441,5.70403 15.657808,8.82991 25.679258,9.90825 2.22945,0.2399 5.76802,0.47408 7.17391,0.47477 0.9208,5.3e-4 1.00567,0.0278 1.85641,0.59837 5.02635,3.37099 14.40077,5.73343 23.94755,6.035 l 2.87408,0.0908 -1.08075,0.49903 c -1.67292,0.77247 -4.63918,1.92214 -6.82674,2.6459 -5.34013,1.76683 -10.03632,2.64946 -15.66845,2.94483 -2.4549,0.12874 -3.17406,0.1355 -5.39938,0.0508 z"
             style="display:inline;fill:#140909;fill-opacity:0.117647;stroke:#140909;stroke-width:0.134;stroke-miterlimit:4;stroke-dasharray:none;stroke-opacity:0.117647;filter:url(#filter8881)" /><g
             id="g1353"
             style="stroke:#333333;stroke-width:2.36506;stroke-miterlimit:4;stroke-dasharray:none;stroke-opacity:1"
             transform="matrix(0.24543133,0,0,0.24543133,254.31198,58.146174)"><path
               sodipodi:nodetypes="cccccccccccccc"
               inkscape:connector-curvature="0"
               id="path1345"
               d="m 269.26082,92.757915 c 2.17396,-8.479657 7.11028,-17.656418 16.14815,-25.72436 9.62679,-7.443005 20.69358,-13.017669 32.48404,-14.45822 10.69007,-1.748696 20.78647,-1.45825 31.70135,0.390081 11.78732,3.158844 20.42724,6.952597 29.29197,14.270503 7.84721,6.873421 13.63947,14.926258 16.12447,24.785516 2.02206,7.985935 1.46382,17.553475 -0.81609,23.644305 -2.93508,7.15336 -5.73404,12.49239 -10.61957,18.06415 -5.29585,4.94204 -10.25447,9.43445 -16.44958,12.12835 -7.66301,3.758 -17.4945,7.04785 -27.53845,7.90982 -12.59288,0.65786 -25.15303,-0.3358 -37.46797,-5.84182 -9.4847,-3.80986 -16.83366,-9.19342 -23.39577,-16.82512 -4.54011,-5.57176 -7.81718,-11.59314 -8.76026,-18.06415 -1.96253,-6.84842 -1.93432,-13.608108 -0.70229,-20.279055 z"
               style="fill:none;stroke:#333333;stroke-width:2.36506;stroke-linecap:butt;stroke-linejoin:miter;stroke-miterlimit:4;stroke-dasharray:none;stroke-opacity:1" /><path
               sodipodi:nodetypes="cssscccccccc"
               inkscape:connector-curvature="0"
               id="path1347"
               d="m 277.14859,76.071451 c -0.93934,1.510954 -2.98628,6.700779 -3.62816,9.047108 -2.4838,9.079279 -0.74672,23.292091 8.85261,32.602521 7.54137,7.31441 15.75617,12.37985 24.30952,15.19345 6.30246,2.17585 12.60493,3.22627 18.90739,3.48887 6.41502,0.60024 12.83003,0.41266 19.24505,-0.56272 7.20282,-1.16295 13.28019,-2.66354 19.92029,-5.85229 4.50176,-2.17585 8.21571,-4.35171 12.15475,-7.54046 4.53928,-3.52638 7.72804,-7.39039 10.91679,-11.92967 1.98827,-3.56389 3.30128,-7.46542 3.93903,-11.366946 0.22509,-3.188748 0.45019,-6.039865 0.33765,-8.890981 -0.18758,-2.475969 -1.27551,-8.32826 -2.81361,-10.804229"
               style="fill:none;stroke:#333333;stroke-width:2.36506;stroke-linecap:round;stroke-linejoin:miter;stroke-miterlimit:4;stroke-dasharray:none;stroke-opacity:1" /><path
               sodipodi:nodetypes="cccccccccccc"
               inkscape:connector-curvature="0"
               id="path1349"
               d="m 312.11086,87.163073 c 2.63874,-3.142924 6.02037,-5.377874 10.39251,-6.704851 3.04638,-0.833036 6.17531,-1.418443 9.38678,-1.508591 4.1588,0.148558 7.82234,0.627287 11.73351,2.179077 3.86927,1.547937 6.50041,3.756217 8.88391,6.872472 1.98864,3.104797 3.15185,6.704852 1.5086,10.057278 -1.44633,3.589912 -4.29589,6.436942 -8.54868,8.045822 -3.58099,1.44257 -7.4096,2.05973 -11.73348,2.3467 -4.16133,0.24003 -8.5703,-0.0152 -12.64909,-1.3435 -3.31814,-1.13016 -6.22358,-3.25083 -8.7163,-5.86675 -1.69274,-1.569539 -2.22987,-3.386704 -2.43684,-5.864213 -0.0991,-2.655272 0.62729,-5.475629 2.17908,-8.213444 z"
               style="fill:none;stroke:#333333;stroke-width:2.36506;stroke-linecap:butt;stroke-linejoin:miter;stroke-miterlimit:4;stroke-dasharray:none;stroke-opacity:1" /><path
               sodipodi:nodetypes="cccacaccc"
               inkscape:connector-curvature="0"
               id="path1351"
               d="m 318.28602,105.90273 c -0.72913,-0.5778 -1.56391,-1.05551 -2.06358,-1.82626 -1.32314,-2.09484 -0.21891,-3.25682 1.83658,-4.539867 1.11326,-0.621339 2.29759,-1.144166 3.52871,-1.475457 3.08134,-0.829178 6.32831,-1.155603 9.49246,-1.238146 3.79698,0.02751 6.893,0.2766 10.23696,1.039409 1.52932,0.348861 3.40697,1.072119 4.42474,1.601967 2.51806,1.113024 3.46913,2.780244 1.73009,4.890674 -0.81981,0.9131 -1.7129,1.32757 -3.01983,1.9604"
               style="fill:none;stroke:#333333;stroke-width:2.36506;stroke-linecap:round;stroke-linejoin:miter;stroke-miterlimit:4;stroke-dasharray:none;stroke-opacity:1" /></g><path
             transform="matrix(0.46275372,0,0,0.46275372,278.72239,34.284303)"
             style="display:inline;fill:#140909;fill-opacity:0.117647;stroke:#140909;stroke-width:1.018;stroke-miterlimit:4;stroke-dasharray:none;stroke-opacity:0.117647;filter:url(#filter1002)"
             d="m 56.557332,146.78644 c -8.419314,-2.07032 -13.795417,-9.54596 -15.369818,-21.37223 -0.79685,-5.98563 0.01884,-11.20129 2.539926,-16.24083 2.298523,-4.59463 6.004722,-8.43062 10.150253,-10.505689 5.820219,-2.91335 11.95963,-3.03149 19.84631,-0.38192 1.395696,0.4689 2.53763,0.76436 2.53763,0.65659 0,-0.10778 -0.533014,-1.02219 -1.184479,-2.03204 -5.115809,-7.93016 -6.311506,-16.64072 -3.183805,-23.19385 0.682574,-1.43012 2.38075,-3.91734 2.555375,-3.74272 0.0599,0.0599 -0.04523,0.7299 -0.233628,1.48888 -0.680339,2.74083 -0.850384,4.60614 -0.723291,7.93404 0.218554,5.72263 1.676114,10.99197 4.970476,17.96909 1.185002,2.509722 1.234016,2.676359 0.787688,2.678139 -0.261765,0.001 -2.58963,0.14934 -5.173027,0.32955 -14.46272,1.0089 -20.942294,3.02221 -25.017795,7.77345 -5.254086,6.12523 -5.71812,18.17275 -1.013148,26.30399 0.961477,1.66165 4.323154,5.03085 6.057458,6.071 l 1.327255,0.79603 67.053578,-0.62792 67.05359,-0.62793 1.96622,-0.58025 c 2.5832,-0.76233 5.64863,-2.2793 7.72244,-3.82158 2.12693,-1.58176 4.84037,-4.45252 6.36462,-6.73362 0.65294,-0.97716 1.21541,-1.7484 1.24993,-1.71388 0.1346,0.1346 -1.22052,3.81775 -1.89948,5.16269 -3.70829,7.34578 -10.57599,12.11686 -19.33618,13.4331 -2.33757,0.35123 -5.5262,0.39278 -84.21984,1.0973 -44.559148,0.39892 -42.700309,0.40387 -44.828258,-0.11939 z"
             id="path1355"
             inkscape:connector-curvature="0" /></g></g></g></g></svg>
